<svg id="Layer_1" data-name="Layer 1" xmlns="http://www.w3.org/2000/svg" xmlns:xlink="http://www.w3.org/1999/xlink" viewBox="0 0 806.32 184.57"><defs><linearGradient id="linear-gradient" x1="387.86" y1="165.6" x2="387.86" y2="84.22" gradientUnits="userSpaceOnUse"><stop offset="0.16" stop-color="#ffd477"/><stop offset="0.84" stop-color="#fcd174"/></linearGradient><linearGradient id="linear-gradient-2" x1="473.23" y1="168.1" x2="473.23" y2="81.72" xlink:href="#linear-gradient"/><linearGradient id="linear-gradient-3" x1="578.35" y1="165.84" x2="578.35" y2="84.22" xlink:href="#linear-gradient"/><linearGradient id="linear-gradient-4" x1="672.92" y1="165.6" x2="672.92" y2="84.22" xlink:href="#linear-gradient"/><linearGradient id="linear-gradient-5" x1="640.92" y1="71.1" x2="746.53" y2="71.1" xlink:href="#linear-gradient"/></defs><path d="M47,84.53h19.5l69.1,80.76-22,.23L66.46,109.68v55.61H47Zm69.11,0h19.49v59.19l-19.49-21.81Z" transform="translate(-46.96 -23.2)" style="fill:#fff"/><path d="M229.47,84.53V100.8H157.36V84.53Zm0,32.31V133H157.36V116.84Zm0,32.18v16.27H157.71V149Z" transform="translate(-46.96 -23.2)" style="fill:#fff"/><path d="M270.42,165.29h-25l24.46-31,12.22,15.23Zm39.92,0L248.27,84.53h23.07l19,24,19-24h22.95l-30,39.11,33,41.65Z" transform="translate(-46.96 -23.2)" style="fill:#fff"/><path d="M424.91,165.6H350.8V146.38l39.67-35h30.67L386,144.9h39Zm-68.71-5.39h63.32V150.3h-47l35.17-33.55H392.51L356.2,148.82Zm65-55.28-69.44-.12V84.22h69.44Zm-64.05-5.51,58.66.1v-9.9H357.17Z" transform="translate(-46.96 -23.2)" style="fill:url(#linear-gradient)"/><path d="M473.23,168.1c-22.3,0-46-15.14-46-43.19,0-16.75,8.25-26.93,15.17-32.52a49.85,49.85,0,0,1,61.64,0c6.94,5.6,15.22,15.78,15.22,32.52S511,151.84,504,157.44A49.85,49.85,0,0,1,473.23,168.1Zm0-81c-19.69,0-40.61,13.24-40.61,37.79s20.92,37.8,40.61,37.8,40.62-13.25,40.62-37.8S492.92,87.12,473.23,87.12Zm0,63.5c-13.25,0-27.33-9-27.33-25.71S460,99.09,473.23,99.09s27.24,9,27.24,25.82S486.44,150.62,473.23,150.62Zm0-46.13c-10.63,0-21.94,7.16-21.94,20.42,0,8.17,5.84,20.32,21.94,20.32A23.86,23.86,0,0,0,488,140.14a18.82,18.82,0,0,0,7-15.23C495.07,111.65,483.82,104.49,473.23,104.49Z" transform="translate(-46.96 -23.2)" style="fill:url(#linear-gradient-2)"/><path d="M596.5,165.84,556.15,118V165.6H532.41V84.22H554.7l69.59,81.32ZM550.76,103.2,599,160.41l13.68-.14L552.21,89.62h-14.4v70.59h13Zm70.42,46.47-23.74-26.55V84.22h23.74Zm-18.35-28.61,12.95,14.48V89.62H602.83Z" transform="translate(-46.96 -23.2)" style="fill:url(#linear-gradient-3)"/><path d="M709.54,165.6H636.62V144.9h72.92ZM642,160.21h62.12V150.3H642Zm67.52-25H636.3V114.62h73.24Zm-67.85-5.4h62.45V120H641.69Zm67.85-24.89H636.3V84.22h73.24Zm-67.85-5.39h62.45V89.62H641.69Z" transform="translate(-46.96 -23.2)" style="fill:url(#linear-gradient-4)"/><path d="M473,116.12c5.11,0,8.36,3.36,8.36,8.46s-3.25,8.36-8.36,8.36-8.46-3.25-8.46-8.36S467.77,116.12,473,116.12Z" transform="translate(-46.96 -23.2)" style="fill:#fff"/><polygon points="723.69 112.14 706.52 135.87 681.43 135.87 711.41 92.76 640.92 0 703.73 92.71 669.31 142.21 709.76 142.21 723.76 122.86 738.11 142.16 746.53 142.2 723.69 112.14" style="fill:url(#linear-gradient-5)"/><polygon points="723.55 72.43 740.72 48.7 765.81 48.7 735.83 91.81 806.33 184.57 743.51 91.86 777.93 42.36 737.48 42.36 723.48 61.71 709.14 42.41 700.71 42.37 723.55 72.43" style="fill:#fff"/></svg>